<?xml version="1.0" encoding="UTF-8" standalone="no"?>
<!DOCTYPE svg PUBLIC "-//W3C//DTD SVG 1.1//EN"
 "http://www.w3.org/Graphics/SVG/1.1/DTD/svg11.dtd">
<!-- Generated by graphviz version 2.38.0 (20140413.2041)
 -->
<!-- Title: %3 Pages: 1 -->
<svg width="886pt" height="231pt"
 viewBox="0.00 0.00 885.72 231.00" xmlns="http://www.w3.org/2000/svg" xmlns:xlink="http://www.w3.org/1999/xlink">
<g id="graph0" class="graph" transform="scale(1 1) rotate(0) translate(4 227)">
<title>%3</title>
<polygon fill="#3f3f3f" stroke="none" points="-4,4 -4,-227 881.717,-227 881.717,4 -4,4"/>
<text text-anchor="middle" x="438.858" y="-9.2" font-family="Times,serif" font-size="16.00" fill="white">Network Map</text>
<!-- R6 -->
<g id="node1" class="node"><title>R6</title>
<polygon fill="#006699" stroke="#006699" points="103.217,-223 26.2169,-223 26.2169,-150 103.217,-150 103.217,-223"/>
<text text-anchor="middle" x="64.7169" y="-182.8" font-family="Helvetica,sans-Serif" font-size="14.00" fill="white">R6</text>
</g>
<!-- R3 -->
<g id="node2" class="node"><title>R3</title>
<polygon fill="#006699" stroke="#006699" points="841.217,-99 764.217,-99 764.217,-26 841.217,-26 841.217,-99"/>
<text text-anchor="middle" x="802.717" y="-58.8" font-family="Helvetica,sans-Serif" font-size="14.00" fill="white">R3</text>
</g>
<!-- SW1 -->
<g id="node5" class="node"><title>SW1</title>
<polygon fill="#006699" stroke="#006699" points="602.717,-223 510.717,-223 510.717,-150 602.717,-150 602.717,-223"/>
<text text-anchor="middle" x="556.717" y="-182.8" font-family="Helvetica,sans-Serif" font-size="14.00" fill="white">SW1</text>
</g>
<!-- R3&#45;&#45;SW1 -->
<g id="edge5" class="edge"><title>R3&#45;&#45;SW1</title>
<path fill="none" stroke="green" stroke-dasharray="5,2" d="M789.746,-99.1878C783.792,-111.165 775.584,-123.6 764.717,-132 717.663,-168.371 648.5,-180.188 603.043,-183.929"/>
<text text-anchor="middle" x="827.717" y="-120.8" font-family="Courier,monospace" font-size="14.00" fill="white"> &#160;&#160;&#160;&#160;&#160;&#160;&#160;&#160;&#160;&#160;&#160;</text>
<text text-anchor="middle" x="632.043" y="-172.729" font-family="Courier,monospace" font-size="14.00" fill="white">Eth 0/3</text>
<text text-anchor="middle" x="760.746" y="-102.988" font-family="Courier,monospace" font-size="14.00" fill="white">Eth 0/0</text>
</g>
<!-- R4 -->
<g id="node3" class="node"><title>R4</title>
<polygon fill="#006699" stroke="#006699" points="656.217,-99 579.217,-99 579.217,-26 656.217,-26 656.217,-99"/>
<text text-anchor="middle" x="617.717" y="-58.8" font-family="Helvetica,sans-Serif" font-size="14.00" fill="white">R4</text>
</g>
<!-- R4&#45;&#45;SW1 -->
<g id="edge6" class="edge"><title>R4&#45;&#45;SW1</title>
<path fill="none" stroke="green" stroke-dasharray="5,2" d="M654.424,-99.1589C661.062,-109.762 664.109,-121.381 657.717,-132 645.693,-151.976 623.429,-164.885 602.859,-173.006"/>
<text text-anchor="middle" x="710.717" y="-120.8" font-family="Courier,monospace" font-size="14.00" fill="white"> &#160;&#160;&#160;&#160;&#160;&#160;&#160;&#160;&#160;&#160;&#160;</text>
<text text-anchor="middle" x="631.859" y="-161.806" font-family="Courier,monospace" font-size="14.00" fill="white">Eth 0/4</text>
<text text-anchor="middle" x="625.424" y="-102.959" font-family="Courier,monospace" font-size="14.00" fill="white">Eth 0/0</text>
</g>
<!-- R5 -->
<g id="node7" class="node"><title>R5</title>
<polygon fill="#006699" stroke="#006699" points="359.217,-223 282.217,-223 282.217,-150 359.217,-150 359.217,-223"/>
<text text-anchor="middle" x="320.717" y="-182.8" font-family="Helvetica,sans-Serif" font-size="14.00" fill="white">R5</text>
</g>
<!-- R4&#45;&#45;R5 -->
<g id="edge7" class="edge"><title>R4&#45;&#45;R5</title>
<path fill="none" stroke="green" stroke-dasharray="5,2" d="M579.13,-95.6562C558.117,-113.115 536.093,-131.305 534.717,-132 477.453,-160.907 403.51,-174.89 359.229,-181.103"/>
<text text-anchor="middle" x="602.717" y="-120.8" font-family="Courier,monospace" font-size="14.00" fill="white"> &#160;&#160;&#160;&#160;&#160;&#160;&#160;&#160;&#160;&#160;&#160;</text>
<text text-anchor="middle" x="388.229" y="-169.903" font-family="Courier,monospace" font-size="14.00" fill="white">Eth 0/1</text>
<text text-anchor="middle" x="550.13" y="-84.4562" font-family="Courier,monospace" font-size="14.00" fill="white">Eth 0/1</text>
</g>
<!-- R1 -->
<g id="node4" class="node"><title>R1</title>
<polygon fill="#006699" stroke="#006699" points="472.217,-99 395.217,-99 395.217,-26 472.217,-26 472.217,-99"/>
<text text-anchor="middle" x="433.717" y="-58.8" font-family="Helvetica,sans-Serif" font-size="14.00" fill="white">R1</text>
</g>
<!-- R1&#45;&#45;SW1 -->
<g id="edge1" class="edge"><title>R1&#45;&#45;SW1</title>
<path fill="none" stroke="green" stroke-dasharray="5,2" d="M427,-99.1787C426.682,-110.477 428.402,-122.487 434.717,-132 451.602,-157.434 483.51,-170.863 510.46,-177.905"/>
<text text-anchor="middle" x="484.717" y="-120.8" font-family="Courier,monospace" font-size="14.00" fill="white"> &#160;&#160;&#160;&#160;&#160;&#160;&#160;&#160;&#160;&#160;&#160;</text>
<text text-anchor="middle" x="481.46" y="-166.705" font-family="Courier,monospace" font-size="14.00" fill="white">Eth 0/1</text>
<text text-anchor="middle" x="398" y="-102.979" font-family="Courier,monospace" font-size="14.00" fill="white">Eth 0/0</text>
</g>
<!-- R2 -->
<g id="node6" class="node"><title>R2</title>
<polygon fill="#006699" stroke="#006699" points="226.217,-99 149.217,-99 149.217,-26 226.217,-26 226.217,-99"/>
<text text-anchor="middle" x="187.717" y="-58.8" font-family="Helvetica,sans-Serif" font-size="14.00" fill="white">R2</text>
</g>
<!-- R2&#45;&#45;R6 -->
<g id="edge4" class="edge"><title>R2&#45;&#45;R6</title>
<path fill="none" stroke="green" stroke-dasharray="5,2" d="M148.966,-69.261C120.688,-75.701 84.2006,-89.1575 65.7169,-117 59.4018,-126.513 57.6824,-138.523 58,-149.821"/>
<text text-anchor="middle" x="115.717" y="-120.8" font-family="Courier,monospace" font-size="14.00" fill="white"> &#160;&#160;&#160;&#160;&#160;&#160;&#160;&#160;&#160;&#160;&#160;</text>
<text text-anchor="middle" x="29" y="-138.621" font-family="Courier,monospace" font-size="14.00" fill="white">Eth 0/1</text>
<text text-anchor="middle" x="119.966" y="-58.061" font-family="Courier,monospace" font-size="14.00" fill="white">Eth 0/2</text>
</g>
<!-- R2&#45;&#45;SW1 -->
<g id="edge2" class="edge"><title>R2&#45;&#45;SW1</title>
<path fill="none" stroke="green" stroke-dasharray="5,2" d="M226.5,-85.8062C253.583,-100.613 290.97,-119.546 325.717,-132 388.107,-154.363 463.388,-169.758 510.669,-178.104"/>
<text text-anchor="middle" x="375.717" y="-120.8" font-family="Courier,monospace" font-size="14.00" fill="white"> &#160;&#160;&#160;&#160;&#160;&#160;&#160;&#160;&#160;&#160;&#160;</text>
<text text-anchor="middle" x="481.669" y="-181.904" font-family="Courier,monospace" font-size="14.00" fill="white">Eth 0/2</text>
<text text-anchor="middle" x="255.5" y="-74.6062" font-family="Courier,monospace" font-size="14.00" fill="white">Eth 0/0</text>
</g>
<!-- R2&#45;&#45;R5 -->
<g id="edge3" class="edge"><title>R2&#45;&#45;R5</title>
<path fill="none" stroke="green" stroke-dasharray="5,2" d="M180.844,-99.2841C180.516,-110.589 182.268,-122.577 188.717,-132 209.595,-162.507 251.105,-175.628 282.03,-181.266"/>
<text text-anchor="middle" x="238.717" y="-120.8" font-family="Courier,monospace" font-size="14.00" fill="white"> &#160;&#160;&#160;&#160;&#160;&#160;&#160;&#160;&#160;&#160;&#160;</text>
<text text-anchor="middle" x="253.03" y="-170.066" font-family="Courier,monospace" font-size="14.00" fill="white">Eth 0/0</text>
<text text-anchor="middle" x="151.844" y="-103.084" font-family="Courier,monospace" font-size="14.00" fill="white">Eth 0/1</text>
</g>
</g>
</svg>
